<?xml version="1.0" standalone="no"?>
<!DOCTYPE svg PUBLIC "-//W3C//DTD SVG 1.1//EN" "http://www.w3.org/Graphics/SVG/1.1/DTD/svg11.dtd">
<svg xmlns="http://www.w3.org/2000/svg">
<metadata>Copyright (C) 2021 by original authors @ fontello.com</metadata>
<defs>
<font id="fontello" horiz-adv-x="1000" >
<font-face font-family="fontello" font-weight="400" font-stretch="normal" units-per-em="1000" ascent="850" descent="-150" />
<missing-glyph horiz-adv-x="1000" />
<glyph glyph-name="pickup" unicode="&#xe800;" d="M409 512c-5-3-12-5-19-5-22 0-40 19-40 41l0 77c0 23 5 47 16 68 9 18 23 35 38 48l0 90h192v-90c35-29 54-72 54-118v-54c0-18-15-33-33-33l-21 0 0-23c0-22-19-41-41-41-12 0-23 6-30 14-7-6-16-9-25-9-14 0-27 8-34 19-6-3-13-5-21-5-15 0-29 8-36 21z m17 211c-31-23-49-59-49-98l0-77c0-7 6-14 13-14 8 0 25 7 25 14v21h7v-37c0-8 16-14 23-14 8 0 29 6 29 14l0 37 6 0 0-51c0-7 12-14 20-14 8 0 25 7 25 14v51h5v-56c0-7 17-14 25-14 7 0 23 7 23 14l0 97h7l0-47 32 0c4 0 6 3 6 6v54c0 40-18 77-49 100l-5 4v77l-138 0v-77l-5-4z m-238-299l-63-530c-1-6 1-13 6-18 4-4 10-7 17-7h705c6 0 12 3 16 7 5 5 7 12 6 18l-63 530c-2 12-11 20-23 20h-59c-4 39-13 63-45 98-4-14-20-30-28-36 22-25 24-36 27-61 0 0 1 0 1-1h-372c1 7 1 12 1 16 0 11 0 19 13 34-6 6-19 24-19 48-32-36-36-59-41-98h-56c-12 0-21-8-23-20z m142-25h337 102l58-485h-654l58 485h99z m79 113l8 4-4 7-8-4 4-7z m-59 36l8 0v0l-8 0z m0 77l8 0v0l-8 0z m16 68l-7 4 0 0 7-4z m38 48l6-7 3 3v4h-9z m0 90v9h-8v-9l8 0z m192 0h8v9h-8v-9z m0-90h-9v-4l3-3 6 7z m54-118l-8 0v0h8z m-33-87l0-9h0l0 9z m-21 0l0 8-9 0 0-8 9 0z m0-23l-9 0v0h9z m-71-27l6 5-5 6-6-5 5-6z m-59 10l7 5-5 6-7-4 5-7z m-89 129l8 0v0l-8 0z m49 98l5-6 0 0-5 6z m-49-175l-9 0v0h9z m38 21v9h-9v-9h9z m7 0h9v9h-9v-9z m52-37l-8 0v0h8z m0 37l0 9-8 0 0-9 8 0z m6 0l8 0 0 9-8 0 0-9z m0-51l-8 0v0h8z m45 51v9h-9v-9h9z m5 0h8v9h-8v-9z m48-56l-8 0v0h8z m0 97v9h-8l0-9 8 0z m7 0l9 0 0 9h-9v-9z m0-47l-8 0 0-9 8 0 0 9z m32 0v8h0l0-8z m6 60l-8 0v0h8z m-49 100l-5-6 0 0 5 6z m-5 4h-9v-4l4-2 5 6z m0 77h8v9l-8 0v-9z m-138 0v9h-8v-9h8z m0-77l5-6 4 2v4h-9z m-306-833l-8 1 0 0 8-1z m63 530l9-1 0 0-9 1z m-57-548l-6-5h0l6 5z m738 0l-6 6 0 0 6-6z m6 18l8 1 0 0-8-1z m-63 530l-9-1 0 0 9 1z m-82 20l-8-1 1-7h7v8z m-45 98l6 6-11 12-4-16 9-2z m-28-36l-5 7-8-5 6-7 7 5z m27-61l9 2 0 0-9-2z m1-1v-8h9l-1 10-8-2z m-372 0l-8 2-2-10h10v8z m1 16l8 0v0l-8 0z m13 34l6-5 5 6-6 5-5-6z m-19 48l9 0 0 22-15-16 6-6z m-41-98v-8h8l1 7-9 1z m502-45l9 1-1 8h-8v-9z m58-485v-9h10l-2 10-8-1z m-654 0l-8 1-1-10h9v9z m58 485v9h-8l-1-8 9-1z m159 100c9 0 16 2 23 6l-8 14c-4-2-9-3-15-3v-17z m-49 49c0-27 22-49 49-49v17c-17 0-32 14-32 32l-17 0z m0 77l0-77 17 0 0 77-17 0z m18 72c-12-22-18-47-18-72l17 0c0 22 5 44 15 64l-14 8z m40 50c-17-14-31-31-40-50l14-8c9 17 22 33 37 45l-11 13z m-3 84l0-90h17l0 90-17 0z m200 9h-192v-17h192v17z m8-99v90h-17v-90h17z m55-118c0 49-21 94-58 124l-11-13c33-27 52-67 52-111l17 0z m0-54v54h-17v-54h17z m-42-42c23 0 42 19 42 42h-17c0-14-11-25-25-25l0-17z m-21 0l21 0 0 17-21 0 0-17z m8-14l0 23-17 0 0-23 17 0z m-49-49c27 0 49 22 49 49h-17c0-18-14-32-32-32v-17z m-36 16c9-10 21-16 36-16v17c-10 0-18 4-24 10l-12-11z m-19-11c11 0 21 4 30 10l-10 13c-6-4-13-6-20-6v-17z m-41 23c8-14 24-23 41-23v17c-11 0-22 6-27 15l-14-9z m-14-10c9 0 18 3 25 7l-9 14c-4-2-10-4-16-4v-17z m-43 26c8-15 25-26 43-26v17c-12 0-23 7-28 17l-15-8z m-17 117c0 36 17 70 46 92l-10 13c-33-25-53-64-53-105l17 0z m0-77l0 77-17 0 0-77 17 0z m5-5c-3 0-5 2-5 5h-17c0-12 10-22 22-22v17z m16 5c0 2 1 2 0 1-1-1-2-2-4-3-4-2-9-3-12-3v-17c6 0 13 2 19 5 3 2 6 4 9 6 2 2 5 6 5 11h-17z m0 21v-21h17v21h-17z m16 9h-7v-17h7v17z m9-46v37h-17v-37h17z m14-6c-2 0-6 1-10 3-2 1-3 2-4 3-1 1 0 1 0 0h-17c0-5 2-9 5-12 2-2 5-4 8-6 6-3 13-5 18-5v17z m21 6c0 2 1 2 0 1-2-1-4-2-7-4-5-2-11-3-14-3v-17c6 0 14 2 21 5 3 1 7 3 10 6 3 2 6 6 6 12h-16z m0 37l0-37 16 0 0 37-16 0z m14 9l-6 0 0-17 6 0 0 17z m8-60l0 51-16 0 0-51 16 0z m12-5c-2 0-5 1-9 2-1 1-2 2-2 3-1 1-1 1-1 0h-16c0-8 6-14 11-17 5-3 11-5 17-5v17z m16 5c0 2 1 2 0 1-1-1-2-2-4-3-5-2-10-3-12-3v-17c5 0 13 2 19 5 3 1 6 3 9 6 2 2 5 6 5 11h-17z m0 51v-51h17v51h-17z m14 9h-5v-17h5v17z m8-65v56h-16v-56h16z m17-5c-2 0-7 1-12 3-2 1-4 2-4 3-1 1-1 1-1-1h-16c0-5 3-9 5-11 3-3 6-5 9-6 6-3 13-5 19-5v17z m15 5c0 1 0 1-1 1 0-1-2-2-4-3-4-2-8-3-10-3v-17c5 0 12 2 18 5 3 2 6 4 8 6 3 3 5 6 5 11h-16z m0 97l0-97 16 0 0 97-16 0z m15 9h-7v-17h7v17z m9-56l0 47-17 0 0-47 17 0z m23 8l-32 0 0-17 32 0 0 17z m-2-2c0 1 1 2 2 2v-17c8 0 15 7 15 15h-17z m0 54v-54h17v54h-17z m-46 94c29-22 46-56 46-94l17 0c0 43-19 82-53 107l-10-13z m-5 4l5-4 10 13-5 4-10-13z m-4 83v-77h17v77h-17z m-129-8l138 0v17l-138 0v-17z m9-69v77h-17v-77h17z m-9-10l5 4-10 13-5-4 10-13z m-298-824l64 530-17 2-63-530 16-2z m4-11c-3 3-4 7-4 11l-16 2c-1-9 2-18 8-24l12 11z m11-5c-4 0-8 2-11 5l-12-11c5-7 14-11 23-11v17z m705 0h-705v-17h705v17z m10 5c-3-3-6-5-10-5v-17c8 0 17 4 23 11l-13 11z m4 11c0-4-1-8-4-11l13-11c5 6 8 15 7 24l-16-2z m-64 530l64-530 16 2-63 530-17-2z m-14 13c8 0 14-5 14-13l17 2c-2 16-15 28-31 28v-17z m-59 0h59v17h-59v-17z m-52 101c16-18 26-32 32-46 6-14 10-29 12-48l16 2c-2 20-5 37-13 53-7 16-18 32-34 50l-13-11z m-16-37c4 3 11 9 17 16 6 6 12 15 14 25l-17 3c-1-5-5-11-10-18-5-5-11-10-14-13l10-13z m31-53c-2 12-4 22-8 32-4 10-11 20-22 33l-13-11c11-13 17-21 20-29 3-7 4-15 6-28l17 3z m0-1c0 0 0 0 0 1l-17-3c0 0 0-1 0-1l17 3z m-380-10h372v17h-372v-17z m-7 25c0-5 0-10-1-15l16-3c1 7 1 13 1 17l-16 1z m14 39c-6-9-10-16-12-22-2-7-2-12-2-17l16-1c0 6 1 9 2 13 1 4 3 9 9 16l-13 11z m-20 42c0-27 13-46 21-54l11 12c-4 5-15 21-15 42l-17 0z m-24-99c2 20 4 34 9 49 5 13 14 27 29 44l-12 12c-17-19-26-34-32-51-6-16-9-32-11-52l17-2z m-65-7h56v17h-56v-17z m-14-13c0 8 7 13 14 13v17c-16 0-29-12-31-28l17-2z m470-15h-337v-17h337v17z m102 0h-102v-17h102v17z m66-493l-57 485-17-2 58-485 16 2z m-662-10h654v17h-654v-17z m49 495l-57-485 16-2 58 485-17 2z m108 8h-99v-17h99v17z" horiz-adv-x="1000" />

<glyph glyph-name="delivery" unicode="&#xe801;" d="M746 259c-67 0-122-54-122-121 0-67 55-121 122-121 66 0 121 54 121 121 0 67-55 121-121 121z m0-182c-34 0-61 28-61 61 0 33 27 61 61 61 33 0 60-28 60-61 0-34-27-61-60-61z m-415 182c-66 0-121-54-121-121 0-67 55-121 121-121 67 0 122 54 122 121 0 67-55 121-122 121z m0-182c-33 0-60 28-60 61 0 33 27 61 60 61 34 0 61-28 61-61 0-34-27-61-61-61z m496 529c-5 10-15 17-27 17h-160v-61h141l83-164 54 27-91 181z m-172-439h-230v-60h230v60z m-415 0h-105c-16 0-30-13-30-30 0-17 14-30 30-30h105c17 0 31 13 31 30 0 17-14 30-31 30z m734 185l-59 77c-6 8-15 12-24 12h-220v212c0 17-14 30-31 30h-505c-16 0-30-13-30-30 0-17 14-30 30-30h475v-212c0-17 14-31 30-31h236l44-56v-157h-84c-16 0-30-13-30-30 0-17 14-30 30-30h115c16 0 30 13 30 30v197c0 7-2 13-7 18z m-736-31h-139c-17 0-30-14-30-31 0-16 13-30 30-30h139c17 0 31 14 31 30 0 17-14 31-31 31z m70 119h-258c-17 0-31-14-31-30 0-17 14-31 31-31h258c17 0 30 14 30 31 0 16-13 30-30 30z m50 119h-259c-17 0-30-13-30-30 0-17 13-30 30-30h259c16 0 30 13 30 30 0 17-14 30-30 30z" horiz-adv-x="1000" />

<glyph glyph-name="native_maps" unicode="&#xe802;" d="M211 278c-15-9-26-26-26-46 0-30 24-54 54-54 23 0 43 15 50 36h139c30 0 54-24 54-54 0-29-24-53-54-53h-214c-50 0-90-41-90-90 0-49 40-90 90-90h179c10 0 18 8 18 18 0 10-8 18-18 18h-179c-30 0-54 24-54 54 0 30 24 54 54 54h214c50 0 90 40 90 89 0 50-40 90-90 90h-139c-4 12-12 22-23 28l137 224c21 33 33 70 33 109 0 109-89 197-197 197-109 0-197-88-197-197 0-39 11-76 33-109l136-224z m28-64c-10 0-18 8-18 18 0 10 8 18 18 18 10 0 18-8 18-18 0-10-8-18-18-18z m0 559c89 0 161-73 161-162 0-32-10-62-27-89 0 0-1 0-1-1l-133-219c0 0-134 220-134 220-18 27-27 57-27 89 0 89 72 162 161 162z m0-251c49 0 89 40 89 89 0 50-40 90-89 90-50 0-90-40-90-90 0-49 40-89 90-89z m0 143c29 0 53-24 53-54 0-29-24-53-53-53-30 0-54 24-54 53 0 30 24 54 54 54z m326-351c0 109 88 197 196 197 109 0 197-88 197-197 0-39-11-77-33-109l-136-214c16-9 26-26 26-46 0-29-24-53-54-53-23 0-43 15-50 35h-157c-10 0-18 8-18 18 0 10 8 18 18 18h157c4 12 12 22 23 28l-137 214c-21 32-32 70-32 109z m179-369c0-10 8-18 17-18 10 0 18 8 18 18 0 10-8 18-18 18-9 0-17-8-17-18z m17 70l135 210c17 26 27 57 27 89 0 89-73 161-162 161-88 0-161-72-161-161 0-32 10-63 27-89l134-210z m0 389c-49 0-89-40-89-90 0-49 40-89 89-89 50 0 90 40 90 89 0 50-40 90-90 90z m0-143c-29 0-53 24-53 53 0 30 24 54 53 54 30 0 54-24 54-54 0-29-24-53-54-53z m-270-316c0-10-8-18-18-18-10 0-18 8-18 18 0 10 8 18 18 18 10 0 18-8 18-18z m-280 333l5-7 7 4-5 7-7-4z m78-64v8h-6l-2-5 8-3z m0 36l-8-3 2-6h6v9z m-23 28l-7 4-5-7 8-4 4 7z m137 224l-7 5 0 0 7-5z m-328 0l7 5 0 0-7-5z m298 20l7-5 0 0-7 5z m-1-1l7-4 0 0-7 4z m-133-219l-7-4 7-12 7 12-7 4z m-134 220l-7-5 0 0 7 5z m820-317l-7 5 0 0 7-5z m-136-214l-7 5-4-7 7-5 4 7z m-78-64l8 3-2 6h-6v-9z m0 36v-8h6l2 5-8 3z m23 28l4-7 7 5-4 7-7-5z m-137 214l8 5-1 0-7-5z m299 20l-7 4-1 0 8-4z m-135-210l-7-5 7-11 7 11-7 5z m-134 210l7 4 0 0-7-4z m-434 7c0 16 9 31 23 39l-9 14c-18-11-30-30-30-53h16z m46-45c-25 0-46 20-46 45h-16c0-34 27-62 62-62v17z m42 30c-6-18-23-30-42-30v-17c27 0 50 17 58 41l-16 6z m147 5h-139v-16h139v16z m62-62c0 34-27 62-62 62v-16c25 0 46-21 46-46h16z m-62-62c35 0 62 28 62 62h-16c0-25-21-45-46-45v-17z m-214 0h214v17h-214v-17z m-82-81c0 45 37 81 82 81v17c-54 0-98-44-98-98h16z m82-81c-45 0-82 36-82 81h-16c0-54 44-98 98-98v17z m179 0h-179v-17h179v17z m9 9c0-5-4-9-9-9v-17c14 0 26 12 26 26h-17z m-9 10c5 0 9-4 9-10h17c0 15-12 27-26 27v-17z m-179 0h179v17h-179v-17z m-62 62c0-34 27-62 62-62v17c-25 0-46 20-46 45h-16z m62 62c-35 0-62-28-62-62h16c0 25 21 45 46 45v17z m214 0h-214v-17h214v17z m82 81c0-44-37-81-82-81v-17c54 0 98 44 98 98h-16z m-82 81c45 0 82-36 82-81h16c0 54-44 98-98 98v-17z m-139 0h139v17h-139v-17z m-27 30c9-5 16-14 19-24l16 6c-5 13-14 25-27 32l-8-14z m134 236l-137-225 14-8 137 224-14 9z m31 104c0-37-11-73-31-104l14-9c22 34 34 73 34 113h-17z m-188 189c104 0 188-85 188-189h17c0 114-92 206-205 206v-17z m-189-189c0 104 85 189 189 189v17c-114 0-206-92-206-206h17z m32-104c-21 31-32 67-32 104h-17c0-40 12-79 35-113l14 9z m136-225l-136 225-15-9 137-224 14 8z m-6-50c0-15 12-26 27-26v16c-6 0-10 5-10 10h-17z m27 26c-15 0-27-12-27-26h17c0 5 4 9 10 9v17z m26-26c0 14-12 26-26 26v-17c5 0 9-4 9-9h17z m-26-26c14 0 26 11 26 26h-17c0-5-4-10-9-10v-16z m169 405c0 94-76 170-169 170v-17c84 0 152-68 152-153h17z m-28-94c18 28 28 61 28 94h-17c0-30-8-59-25-84l14-10z m-1 0c1 0 1 0 1 0l-14 10c0-1-1-1-1-1l14-9z m-133-219l133 219-14 9-133-220 14-8z m-148 219c0 0 33-54 67-109 16-28 33-55 46-76 6-10 11-19 15-25 2-3 3-5 4-7 1-1 1-1 1-2 0 0 0 0 0 0 0 0 1 0 1 0 0 0 0 0 0 0 0 0 0 0 0 0 0 0 0 0 7 4 7 4 7 4 7 4 0 0 0 0 0 0 0 0 0 0 0 0 0 1 0 1 0 1 0 0 0 0-1 0 0 0 0 1-1 2-1 2-2 4-4 7-4 6-9 14-15 25-13 20-29 48-46 75-34 55-67 110-67 111l-14-10z m-29 94c0-33 10-66 29-94l14 10c-17 25-26 54-26 84h-17z m170 170c-94 0-170-76-170-170h17c0 85 68 153 153 153v17z m81-170c0-44-37-81-81-81v-16c54 0 98 43 98 97h-17z m-81 82c44 0 81-37 81-82h17c0 54-44 98-98 98v-16z m-82-82c0 45 37 82 82 82v16c-54 0-98-44-98-98h16z m82-81c-45 0-82 37-82 81h-16c0-54 44-97 98-97v16z m62 81c0 35-28 62-62 62v-16c25 0 45-21 45-46h17z m-62-62c34 0 62 28 62 62h-17c0-25-20-45-45-45v-17z m-62 62c0-34 27-62 62-62v17c-25 0-46 20-46 45h-16z m62 62c-35 0-62-27-62-62h16c0 25 21 46 46 46v16z m522-153c-113 0-205-93-205-206h17c0 104 84 189 188 189v17z m206-206c0 113-92 206-206 206v-17c104 0 189-85 189-189h17z m-35-114c23 34 35 74 35 114h-17c0-37-11-73-32-104l14-10z m-136-213l136 214-14 9-136-214 14-9z m27-42c0 23-12 43-30 53l-8-14c13-8 22-22 22-39h16z m-62-62c35 0 62 28 62 62h-16c0-25-21-45-46-45v-17z m-58 42c8-24 31-42 58-42v17c-19 0-36 13-42 30l-16-5z m-149-6h157v17h-157v-17z m-26 26c0-14 11-26 26-26v17c-6 0-10 4-10 9h-16z m26 27c-15 0-26-12-26-27h16c0 6 4 10 10 10v17z m157 0h-157v-17h157v17z m18 26c-12-7-21-18-26-32l16-6c3 10 10 19 19 24l-9 14z m-139 203l137-214 14 9-136 214-15-9z m-34 113c0-40 12-80 35-114l13 10c-20 31-31 67-31 104h-17z m205-378c-5 0-9 4-9 9h-17c0-14 12-26 26-26v17z m10 9c0-5-4-9-10-9v-17c15 0 27 12 27 26h-17z m-10 10c6 0 10-4 10-10h17c0 15-12 27-27 27v-17z m-9-10c0 6 4 10 9 10v17c-14 0-26-12-26-27h17z m136 284l-134-210 14-9 135 210-15 9z m26 85c0-30-9-59-25-85l13-9c19 28 29 61 29 94h-17z m-153 153c85 0 153-69 153-153h17c0 94-76 170-170 170v-17z m-152-153c0 84 68 153 152 153v17c-93 0-169-76-169-170h17z m25-85c-16 26-25 55-25 85h-17c0-33 10-66 28-94l14 9z m134-210l-134 210-14-9 134-210 14 9z m-88 295c0 45 37 81 81 81v17c-54 0-97-44-97-98h16z m81-81c-44 0-81 36-81 81h-16c0-54 43-98 97-98v17z m82 81c0-45-37-81-82-81v-17c54 0 98 44 98 98h-16z m-82 81c45 0 82-36 82-81h16c0 54-44 98-98 98v-17z m-62-81c0-34 28-62 62-62v17c-25 0-45 20-45 45h-17z m62 62c-34 0-62-28-62-62h17c0 25 20 46 45 46v16z m62-62c0 34-27 62-62 62v-16c25 0 46-21 46-46h16z m-62-62c35 0 62 28 62 62h-16c0-25-21-45-46-45v-17z m-288-333c15 0 26 12 26 26h-16c0-5-5-9-10-9v-17z m-26 26c0-14 12-26 26-26v17c-5 0-9 4-9 9h-17z m26 27c-14 0-26-12-26-27h17c0 6 4 10 9 10v17z m26-27c0 15-11 27-26 27v-17c5 0 10-4 10-10h16z" horiz-adv-x="1000" />

<glyph glyph-name="spinner" unicode="&#xe803;" d="M68 220c23 9 50-2 59-24 20-48 49-93 88-131 38-39 83-68 131-88 22-10 33-36 24-59-10-23-36-33-59-24-58 24-113 60-160 107-47 47-83 102-107 160-9 23 2 49 24 59z m562 562c10 23 36 33 59 24 58-24 113-60 160-107 47-47 83-102 107-160 9-23-1-49-24-59-23-9-49 2-59 25-20 47-49 92-88 130-38 39-83 68-130 88-23 10-34 36-25 59z" horiz-adv-x="1000" />

<glyph glyph-name="star_filled" unicode="&#xe804;" d="M999 465c-4 10-13 18-24 20l-310 45-139 281c-5 10-15 16-26 16-11 0-21-6-26-16l-139-281-310-45c-11-2-20-10-24-20-3-11 0-22 8-30l224-219-53-309c-2-11 3-22 12-28 5-4 11-6 17-6 5 0 9 1 14 3l277 146 277-146c10-5 22-4 31 3 9 6 14 17 12 28l-53 309 224 219c8 8 11 19 8 30z" horiz-adv-x="1000" />

<glyph glyph-name="star" unicode="&#xe805;" d="M999 465c-4 10-13 18-24 20l-310 45-139 281c-5 10-15 16-26 16-11 0-21-6-26-16l-139-281-310-45c-11-2-20-10-24-20-3-11 0-22 8-30l224-219-53-309c-2-11 3-22 12-28 9-7 21-8 31-3l277 146 277-146c5-2 9-3 14-3 6 0 12 2 17 6 9 6 14 17 12 28l-53 309 224 219c8 8 11 19 8 30z m-284-218c-7-6-10-16-8-26l45-265-238 125c-9 5-19 5-28 0l-238-125 46 265c1 10-2 20-9 26l-193 188 267 39c9 1 18 7 22 16l119 242 119-242c5-9 13-15 22-16l267-39-193-188z" horiz-adv-x="1000" />

<glyph glyph-name="download" unicode="&#xe806;" d="M448 350c-8 0-15-3-20-8-6-6-9-13-9-20l0-377-118 104c-6 5-13 7-21 7-7-1-14-4-19-10-5-5-8-13-8-20 1-8 4-15 10-20l166-145c5-5 12-8 20-7 7 0 14 3 19 8l154 145c3 3 5 6 7 9 1 4 2 8 2 11 0 4 0 8-2 11-1 4-3 7-6 10-2 3-6 5-9 6-4 2-7 3-11 3-4 0-8-1-11-2-4-2-7-4-10-6l-105-100 0 373c0 8-3 15-9 20-5 5-12 8-20 8z m311 113c4 36 1 74-8 110-17 65-67 153-203 193-75 22-141 17-198-17-75-45-111-128-124-170-47 5-95-6-135-29-44-28-72-72-85-132-18-83 9-137 34-168 20-23 45-42 73-55 28-13 59-20 90-21h80c7 0 15 3 20 9 6 5 9 12 9 20 0 7-3 15-9 20-5 5-13 8-20 8h-80c-22 1-44 6-64 15-21 10-39 23-54 40-25 31-33 72-23 121 10 44 30 76 59 95 52 32 119 17 119 17 4 0 8-1 12 0 4 1 7 2 11 4 3 2 6 5 8 8 2 3 3 7 4 10 0 1 24 111 105 159 42 25 93 28 152 11 209-62 169-252 167-260-2-7-1-14 3-20 3-6 9-11 15-13 5-1 113-41 86-129-18-61-93-59-95-59h-108c-8 0-15-3-21-8-5-5-8-13-8-20 0-8 3-15 8-20 6-6 13-9 21-9h111c45 0 124 20 148 99 30 99-43 163-100 191z" horiz-adv-x="866" />

<glyph glyph-name="arrow-left" unicode="&#xe807;" d="M1600 398c0 18-7 35-19 48-12 13-28 20-45 20l-1304 0 329 265c10 10 16 22 20 35 3 13 2 27-3 40-4 13-13 24-23 32-11 8-24 12-37 12-16 0-31-6-43-17l-454-384c-7-6-12-14-16-23-3-9-5-18-5-28 0-9 2-19 5-28 4-8 9-16 16-23l454-413c7-6 14-11 22-14 8-3 17-5 25-4 9 0 17 3 25 6 7 4 14 10 20 17 6 6 10 14 13 23 2 8 4 17 3 26-1 9-3 18-7 26-4 8-9 16-15 22l-329 294 1304 0c17 0 33 8 45 20 12 13 19 30 19 48v0z" horiz-adv-x="1600" />

<glyph glyph-name="ic_lines" unicode="&#xe808;" d="M562 116h-320c-19 0-34 15-34 33 0 19 15 33 34 33h320c19 0 34-14 34-33 0-18-15-33-34-33z m209 209h-529c-19 0-34 15-34 33 0 18 15 33 34 33h529c18 0 33-15 33-33 0-18-15-33-33-33z m0 209h-529c-19 0-34 14-34 33 0 18 15 33 34 33h529c18 0 33-15 33-33 0-19-15-33-33-33z" horiz-adv-x="1000" />

<glyph glyph-name="ic_list" unicode="&#xe809;" d="M800 108h-446c-18 0-33 15-33 33 0 19 15 34 33 34h446c18 0 33-15 33-34 0-18-15-33-33-33z m0 209h-446c-18 0-33 15-33 33 0 18 15 33 33 33h446c18 0 33-15 33-33 0-18-15-33-33-33z m0 209h-446c-18 0-33 14-33 33 0 18 15 33 33 33h446c18 0 33-15 33-33 0-19-15-33-33-33z m-589-14c25 0 45 20 45 44 0 25-20 45-45 45-24 0-44-20-44-45 0-24 20-44 44-44z m0-207c25 0 45 20 45 45 0 25-20 45-45 45-24 0-44-20-44-45 0-25 20-45 44-45z m0-206c25 0 45 20 45 45 0 24-20 44-45 44-24 0-44-20-44-44 0-25 20-45 44-45z" horiz-adv-x="1000" />

<glyph glyph-name="ic_mail" unicode="&#xe80a;" d="M672 230l0 0c-10 9-11 25-4 36 0 0 0 0 0 0l2-2 2-34z m0 0l127-109m-127 109l127-109m0 0l-584-1 128 110 0 0 0 0c10 9 11 25 4 36l0 0c-7 11-22 13-32 4 0 0 0 0 0 0l-143-123 0 381 322-257c4-3 9-4 13-4 5 0 9 1 13 4l0 0 322 258 1-382-143 123c0 0 0 0 0 0l99-149z m46 482l0 0-677-1c0 0 0 0 0 0-11 0-21-5-29-14l0 0c-8-9-12-21-12-34l0 0 0-437c0-13 5-25 12-34 8-9 19-14 30-14h0 0l677 1c23 0 42 22 42 48l-1 438c0 25-18 47-42 47l0 0z m-625-52l574 1-287-229-287 228z" horiz-adv-x="1000" />

<glyph glyph-name="ic_cashback" unicode="&#xe80b;" d="M507 436c17 0 31-14 31-31 0-17 14-31 31-31 17 0 31 14 31 31 0 40-26 75-62 88v36c0 17-14 31-31 31-17 0-31-14-31-31v-36c-36-13-62-48-62-88 0-51 42-93 93-93 17 0 31-14 31-31 0-17-14-31-31-31-17 0-31 14-31 31 0 17-14 31-31 31-17 0-31-14-31-31 0-40 26-74 62-87v-36c0-17 14-31 31-31 17 0 31 14 31 31v36c36 13 62 47 62 87 0 52-42 93-93 93-17 0-31 14-31 31 0 17 14 31 31 31z m328-297h-103c0 0-3-3 9 9 13 12 28 32 16 44-12 12-25 12-37 0l-62-62 0 0c-12-12-12-31 0-44l0 0 62-62c12-12 25-12 37 0 12 13-3 32-16 44l-9 9h103c34 0 62-27 62-62 0-34-28-62-62-62h-155c-17 0-31-13-31-30 0-18 14-31 31-31h155c68 0 123 55 123 123 0 69-55 124-123 124z m-269-68c-19-4-39-6-59-6-154 0-278 125-278 278 0 154 124 279 278 279 153 0 278-125 278-279 0-19-2-37-5-55-4-17 7-34 24-37 17-3 33 7 36 24 5 22 7 45 7 68 0 188-152 340-340 340-188 0-340-152-340-340 0-188 152-340 340-340 24 0 48 3 72 8 17 3 27 20 24 36-4 17-20 28-37 24z" horiz-adv-x="1000" />

<glyph glyph-name="ic_profile" unicode="&#xe80c;" d="M248 44l0 0c0-8 3-15 9-21 6-5 14-8 22-8h0 484 0c8 0 16 3 22 8 6 6 9 13 9 21v0c0 148-70 276-170 329 31 20 55 49 68 83 13 34 14 72 3 107-11 36-34 67-66 89-31 22-69 33-108 33-39 0-77-11-108-33-31-22-54-53-65-89-12-35-11-73 3-107 13-34 36-63 67-83-100-53-170-181-170-329z m273 583c24 0 47-7 66-19 20-13 35-30 45-51 9-21 11-43 6-65-4-22-16-42-32-58-17-16-38-27-62-31-23-4-47-2-69 6-22 9-41 24-54 42-13 19-20 41-20 63 0 30 13 59 35 80 23 21 53 33 85 33z m0-286c55 0 105-29 143-78 37-48 62-115 67-190h-421c6 75 31 142 68 190 38 49 88 78 143 78z" horiz-adv-x="1000" />

<glyph glyph-name="ic_title" unicode="&#xe80d;" d="M713 554v5h-5-411-6v-5-45c0-21-17-38-39-38-21 0-38 17-38 38v89c0 21 17 38 38 38h500c21 0 39-17 39-38v-89c0-21-18-38-39-38-21 0-39 17-39 38v45z m-213-365c-20 0-36 15-36 34v254c0 19 16 34 36 34 20 0 36-15 36-34v-254c0-19-16-34-36-34z m76-130h-147c-22 0-39 18-39 39 0 21 17 39 39 39h147c21 0 38-18 38-39 0-21-17-39-38-39z" horiz-adv-x="1000" />

<glyph glyph-name="danger" unicode="&#xe80e;" d="M521 645c-2 4-5 7-9 9-4 2-8 3-12 3-4 0-8-1-12-3-4-2-7-5-9-9l-351-608c-2-3-3-8-3-12 0-4 1-8 3-12 2-4 6-7 9-9 4-2 8-3 12-3h702c6 0 12 3 17 7 4 5 7 11 7 17 0 5-1 10-4 14l-350 606z m-330-596l309 536 309-536h-618z m285 370v-185c0-6 2-12 7-17 4-4 10-7 17-7 6 0 12 3 17 7 4 5 7 11 7 17v185c0 6-3 13-7 17-5 5-11 7-17 7-7 0-13-2-17-7-5-4-7-11-7-17z m24-241c-7 0-13-3-17-7-5-5-7-11-7-17v-16c0-7 2-13 7-17 4-5 10-7 17-7 6 0 12 2 17 7 4 4 7 10 7 17v16c0 6-3 12-7 17-5 4-11 7-17 7z" horiz-adv-x="1000" />

<glyph glyph-name="search" unicode="&#xe80f;" d="M809-18l0 0c4 0 8 0 12 2 4 2 7 4 10 7 6 6 9 14 9 22 0 8-3 16-9 21l0 0 0 0-193 196c44 51 68 117 67 185-2 71-30 138-79 187-49 50-115 79-185 80-70 2-137-23-188-71-52-47-83-112-88-183-5-70 17-139 61-193 45-54 108-89 177-97 68-8 135 10 190 50l195-197c0 0 0 0 0 0 3-3 6-5 10-7 3-1 7-2 11-2z m-588 431c0 42 12 84 36 119 23 36 56 63 95 80 39 16 82 20 123 12 41-8 79-29 109-59 30-30 50-68 58-110 8-42 4-85-12-124-16-40-43-73-78-97-35-24-76-36-119-36-56 0-110 22-150 63-40 40-62 95-62 152z" horiz-adv-x="1000" />

<glyph glyph-name="star-1-(stroke)" unicode="&#xe810;" d="M520 736l56-179c17-57 68-96 125-95l181 0c10 0 17-7 20-15 3-9 1-19-8-26l-146-110c-46-35-66-97-48-154l56-178c3-11-1-20-8-25-7-6-16-7-25 0l-145 110c-47 36-109 36-156 0l-145-110c-9-7-18-6-25 0-7 5-11 14-8 25l56 178c18 57-2 119-48 154l-146 110c-8 7-11 17-8 26 3 8 10 15 20 15l181 0c57-1 108 38 125 95l56 179c6 20 34 20 40 0z m57 18c-24 78-130 78-154 0l-55-179c-10-31-38-52-69-52l-180 1c-40 0-67-27-77-59-10-31-3-70 29-93l146-111c26-19 36-53 27-84l-57-179c-12-39 4-74 30-94 26-20 63-24 95 0l145 111c26 19 60 19 86 0l145-111c32-24 69-20 95 0 27 20 42 55 30 94l-56 179c-10 31 0 65 26 84l146 111c32 23 39 62 29 93-9 32-37 59-76 59l-181-1c-31 0-59 21-69 52l-55 179z" horiz-adv-x="1000" />

<glyph glyph-name="calendar" unicode="&#xe811;" d="M679 386c16 0 28 12 28 27 0 16-12 28-28 28-15 0-27-12-27-28 0-15 12-27 27-27z m64 262h-36v27c0 16-13 28-28 28-15 0-27-12-27-28v-27h-126v27c0 16-12 28-27 28-16 0-28-12-28-28v-27h-124v27c0 16-12 28-28 28-15 0-27-12-27-28v-27h-35c-60 0-110-50-110-110v-431c0-60 50-110 110-110h211c16 0 28 12 28 28 0 15-12 27-28 27h-211c-30 0-55 25-55 55v431c0 30 25 55 55 55h35v-28c0-15 12-27 27-27 16 0 28 12 28 27v28h124v-28c0-15 12-27 28-27 15 0 27 12 27 27v28h126v-28c0-15 12-27 27-27 15 0 28 12 28 27v28h36c30 0 55-25 55-55v-158c0-15 12-27 27-27 16 0 28 12 28 27v158c0 60-49 110-110 110z m-57-317c-92 0-167-75-167-167 0-92 75-167 167-167 92 0 167 75 167 167 0 92-75 167-167 167z m0-279c-61 0-112 50-112 112 0 62 51 112 112 112 62 0 112-50 112-112 0-62-50-112-112-112z m40 140h-12v28c0 16-13 28-28 28-15 0-27-12-27-28v-56c0-15 12-28 27-28h40c15 0 28 13 28 28 0 15-13 28-28 28z m-167 194c16 0 28 12 28 27 0 16-12 28-28 28-15 0-27-12-27-28 0-15 12-27 27-27z m-120-120c16 0 28 12 28 28 0 15-12 27-28 27-15 0-27-12-27-27 0-16 12-28 27-28z m-120 120c16 0 28 12 28 27 0 16-12 28-28 28-15 0-27-12-27-28 0-15 12-27 27-27z m0-120c16 0 28 12 28 28 0 15-12 27-28 27-15 0-27-12-27-27 0-16 12-28 27-28z m0-120c16 0 28 12 28 28 0 15-12 27-28 27-15 0-27-12-27-27 0-16 12-28 27-28z m120 0c16 0 28 12 28 28 0 15-12 27-28 27-15 0-27-12-27-27 0-16 12-28 27-28z m0 240c16 0 28 12 28 27 0 16-12 28-28 28-15 0-27-12-27-28 0-15 12-27 27-27z" horiz-adv-x="1000" />

<glyph glyph-name="arrow" unicode="&#xe812;" d="M675 403l-234 228c-15 14-39 14-55 0-15-15-15-39 0-54l234-227-234-227c-15-15-15-39 0-54 16-14 40-14 55 0l234 228c0 0 33 29 33 53 0 24-33 53-33 53z" horiz-adv-x="1000" />

<glyph glyph-name="delete" unicode="&#xe813;" d="M566 375l-25-25 25-25 390-390 0 0c11-11 11-29 0-41l0 0c-6-6-13-8-21-8-7 0-15 2-20 8l-390 390-25 25-25-25-390-390c-5-6-13-8-20-8-8 0-15 2-21 8l0 0c-11 12-11 30 0 41l0 0 390 390 25 25-25 25-390 390 0 0c-11 11-11 29 0 41l0 0c12 11 30 11 41 0 0 0 0 0 0 0l390-390 25-25 25 25 390 390c11 11 29 11 41 0l0 0c11-12 11-30 0-41l0 0-390-390z" horiz-adv-x="1000" />

<glyph glyph-name="edit" unicode="&#xe814;" d="M842 773l-6-6-748-612 0 0c0 0 0 0 0 0l-40-217 0 0c-2-11 1-23 9-31 8-8 20-11 31-9l217 40 0 0c7 1 14 5 18 10 0 0 0 0 0 0l600 599c40 40 40 105 0 145l-81 81z m1-209l-544-543-128 128 543 544-6 6 6-6 32 31c13 13 34 13 48 0l80-80 6 6-6-6c13-14 13-35 0-48l6-6-6 6-31-32z m-614-570l-104-20 19 105 85-85z" horiz-adv-x="1000" />

<glyph glyph-name="map-marker" unicode="&#xe815;" d="M0 485c0 229 186 365 365 365 201 0 365-164 365-365 0-209-326-606-339-623-7-8-16-12-26-12-10 0-19 4-25 12-14 17-340 414-340 623z m365-114c63 0 114 51 114 114 0 64-51 115-114 115-64 0-115-51-115-115 0-63 51-114 115-114z" horiz-adv-x="750" />

<glyph glyph-name="location" unicode="&#xe816;" d="M964 387h-44c-18 203-180 365-383 383v44c0 20-17 36-37 36-20 0-36-16-36-36v-44c-204-18-366-180-384-383h-43c-21 0-37-17-37-37 0-20 16-36 37-36h43c18-204 180-366 384-384v-44c0-20 16-36 36-36 20 0 37 16 37 36v44c203 18 365 180 383 384h44c20 0 36 16 36 36 0 20-16 37-36 37z m-159-73h44c-17-165-148-296-312-313v44c0 20-17 36-37 36-20 0-36-16-36-36v-44c-165 17-296 148-313 313h44c20 0 36 16 36 36 0 20-16 37-36 37h-44c17 164 148 295 313 312v-44c0-20 16-36 36-36 20 0 37 16 37 36v44c164-17 295-148 312-312h-44c-20 0-36-17-36-37 0-20 16-36 36-36z" horiz-adv-x="1000" />

<glyph glyph-name="menu-tab" unicode="&#xe817;" d="M417 808c0 11-5 22-13 30-7 8-18 12-29 12h-333c-11 0-22-4-30-12-8-8-12-19-12-30v-338c0-11 4-22 12-30 8-8 19-12 30-12h333c11 0 22 4 29 12 8 8 13 19 13 30v338z m-334-42h250v-254h-250v254z m917 42c0 11-4 22-12 30-8 8-19 12-30 12h-333c-11 0-22-4-29-12-8-8-13-19-13-30v-338c0-11 5-22 13-30 7-8 18-12 29-12h333c11 0 22 4 30 12 8 8 12 19 12 30v338z m-333-42h250v-254h-250v254z m-250-536c0 12-5 22-13 30-7 8-18 13-29 13h-333c-11 0-22-5-30-13-8-8-12-18-12-30l0-338c0-11 4-22 12-30 8-8 19-12 30-12h333c11 0 22 4 29 12 8 8 13 19 13 30v338z m-334-42h250v-254h-250v254z m917 42c0 12-4 22-12 30-8 8-19 13-30 13h-333c-11 0-22-5-29-13-8-8-13-18-13-30v-338c0-11 5-22 13-30 7-8 18-12 29-12h333c11 0 22 4 30 12 8 8 12 19 12 30v338z m-333-42h250v-254h-250v254z" horiz-adv-x="1000" />

<glyph glyph-name="contact-us" unicode="&#xe818;" d="M282 735c-54-7-101-35-133-81-36-52-45-115-23-175 85-234 269-418 503-504 60-21 123-13 175 24 46 32 74 79 81 133l-162 35-77-77-364 645z m0 0l35-162-77-77c0 0 0 0 0 0-9-9-12-23-6-34 78-166 212-300 378-378l-330 651z m90-193l0 0c7 7 10 18 8 28l-3-1 3 1-44 203c-3 14-15 24-30 24-42 0-83-10-119-30-35-18-65-45-88-78-23-32-38-70-44-108-6-42-1-83 13-122 45-123 118-238 211-330 92-93 207-166 330-211 28-10 56-15 85-15 13 0 25 1 37 2 38 6 76 21 108 44 33 22 60 53 78 87 20 37 30 78 30 120 0 15-10 27-24 30l-203 44 0 0c-10 2-21-1-28-8l-73-74c-138 70-251 183-321 321l74 73z" horiz-adv-x="1000" />

<glyph glyph-name="orders-tab" unicode="&#xe819;" d="M950-13h-669c-27 0-49 22-49 50 0 27 22 50 49 50h669c28 0 50-23 50-50 0-28-22-50-50-50z m0 313h-669c-27 0-49 23-49 50 0 28 22 50 49 50h669c28 0 50-22 50-50 0-27-22-50-50-50z m0 313h-669c-27 0-49 23-49 50 0 28 22 50 49 50h669c28 0 50-22 50-50 0-27-22-50-50-50z m-883-21c37 0 67 30 67 67 0 37-30 67-67 67-37 0-67-30-67-67 0-37 30-67 67-67z m0-309c37 0 67 30 67 67 0 37-30 67-67 67-37 0-67-30-67-67 0-37 30-67 67-67z m0-309c37 0 67 30 67 67 0 37-30 67-67 67-37 0-67-30-67-67 0-37 30-67 67-67z" horiz-adv-x="1000" />

<glyph glyph-name="waitlist-tab" unicode="&#xe81a;" d="M500-150c99 0 196 29 278 84 82 55 146 133 184 225 38 91 48 192 29 289-20 97-67 186-137 256-70 70-159 117-256 136-97 20-198 10-289-28-92-38-170-102-225-184-55-82-84-179-84-278 0-133 53-260 147-354 93-93 221-146 353-146z m0 921c83 0 165-24 234-71 70-46 124-112 155-189 32-77 41-162 24-243-16-82-56-157-115-216-59-59-134-99-216-115-81-17-166-8-243 23-77 32-143 87-189 156-47 69-71 151-71 234 0 112 44 219 123 298 79 79 186 123 298 123z m-64-504l169-131c7-6 15-9 24-9 6 0 12 1 17 4 6 3 10 7 14 11 3 4 5 9 7 14 1 5 2 10 1 15-1 5-2 10-5 15-3 4-6 8-10 11l-153 120v269c0 10-4 20-11 28-8 7-18 11-28 11-11 0-21-4-28-11-7-8-12-18-12-28v-288c0-6 2-12 4-18 3-5 7-10 11-13z" horiz-adv-x="1000" />

<glyph glyph-name="credit-card" unicode="&#xe81b;" d="M1217 796h-1005c-79 0-144-65-144-145v-602c0-80 65-145 144-145h1005c79 0 144 65 144 145v602c0 80-65 145-144 145z m-1005-88h1005c31 0 56-25 56-57v-76h-1118v76c0 32 26 57 57 57z m1005-716h-1005c-31 0-57 25-57 57v438h1118v-438c0-32-25-57-56-57z" horiz-adv-x="1429" />

<glyph glyph-name="profile" unicode="&#xe81c;" d="M53-58l0-1c0-10 4-20 12-27 8-7 18-11 29-11h0 646 0c11 0 21 4 29 11 7 7 12 17 12 27v1c0 197-94 368-227 438 42 27 73 66 90 111 18 46 20 96 5 143-15 48-46 89-88 118-41 29-92 45-144 45-52 0-102-16-144-45-42-29-72-70-87-118-15-47-14-97 4-143 17-45 48-84 90-111-134-70-227-241-227-438z m364 777c31 0 62-9 88-25 27-17 47-40 59-68 12-27 15-58 9-87-6-29-21-56-43-77-23-21-51-36-82-41-31-6-63-3-92 8-30 12-55 31-72 56-18 25-27 54-27 84 0 39 17 78 47 106 30 28 70 44 113 44z m0-381c73 0 140-39 190-104 50-64 83-154 90-254h-561c7 100 41 190 90 254 51 65 118 104 191 104z" horiz-adv-x="833" />

<glyph glyph-name="ic_logout" unicode="&#xe81d;" d="M499 72h-250c-15 0-28 13-28 28v500c0 15 13 28 28 28h250c15 0 28 12 28 28 0 15-13 27-28 27h-250c-46 0-83-37-83-83v-500c0-46 37-83 83-83h250c15 0 28 12 28 27 0 16-13 28-28 28z m327 298l-169 166c-11 11-28 11-39 0-11-11-11-28 0-39l121-119h-323c-16 0-28-13-28-28 0-15 12-28 28-28h323l-121-119c-11-11-11-28 0-39 5-6 13-8 20-8 7 0 14 2 19 8l169 166c5 5 8 13 8 20 0 7-2 15-8 20z" horiz-adv-x="1000" />

<glyph glyph-name="wallet" unicode="&#xe81e;" d="M0 22l0 625q0 70 51 121t121 51l640 0q40 0 67-28t27-66l0-281q94-71 94-188t-94-187l0-47q0-70-51-121t-121-51l-562 0q-70 0-121 51t-51 121z m63 0q0-45 32-77t77-33l562 0q45 0 78 33t32 77l0 47-281 0q-65 0-111 46t-46 110 46 110 111 46l281 0 0 63q0 13-9 22t-23 9l-640 0q-63 0-109 39l0-492z m0 625q0-45 31-76l0 123q0 13 9 22t22 9l656 0q14 0 23-9t9-22l0-156q15 0 31-6l0 193q0 14-9 22t-23 9l-640 0q-45 0-77-32t-32-77z m62-98q23-11 47-11l609 0 0 31-656 0 0-20z m0 51l656 0 0 31-656 0 0-31z m0 62l656 0 0 32-656 0 0-32z m344-437q0-39 27-66t67-28l320 0q54 51 54 125 0 59-35 104l0-2q-4-8-7-14-20-25-51-25l-281 0q-40 0-67-28t-27-66z m31 0q0 25 19 44t44 19 43-19 19-44-19-44-43-18-44 18-19 44z" horiz-adv-x="1000" />

<glyph glyph-name="ic_block" unicode="&#xe81f;" d="M280-67h416c16 0 31 3 46 9 15 6 28 16 40 27 11 12 20 25 26 40 7 16 10 32 10 48v277c0 27-9 54-25 75-16 22-38 38-64 45v87c0 29-5 59-16 86-11 27-26 52-47 73-20 21-44 38-70 49-26 11-55 17-83 18h-50c-58 0-114-24-156-67-41-42-65-99-65-159v-87c-25-9-46-25-61-46-15-22-23-48-23-74v-277c0-16 3-32 9-48 7-15 16-28 27-40 11-11 25-21 40-27 14-6 30-9 46-9z m183 773h49c21 0 42-5 61-13 20-8 37-21 52-36 14-15 26-33 34-53 7-20 11-42 11-63v-82h-369v82c0 44 18 86 48 117 31 30 72 48 114 48l0 0z m296-647c0-9-2-17-5-25-3-8-8-15-14-21-6-6-13-11-20-14-8-3-16-5-24-5h-416c-8 0-16 2-24 5-8 3-15 8-20 14-6 6-11 13-14 21-3 8-5 16-5 25v274c0 9 2 17 5 25 3 8 8 15 14 21 5 6 12 11 20 14 8 3 16 5 24 5h416c8 0 16-2 24-5 7-3 14-8 20-14 6-6 11-13 14-21 3-8 5-16 5-25v-274z m-281 11c8 0 15 3 21 9 5 5 9 13 9 21v96c0 8-4 16-9 21-6 6-13 9-21 9-8 0-15-3-21-9-5-5-8-13-8-21v-96c0-8 3-16 8-21 6-6 13-9 21-9z" horiz-adv-x="1000" />

<glyph glyph-name="ic_options" unicode="&#xe820;" d="M159 555h680c5 0 10 0 14 2 4 2 8 4 12 7 3 4 5 7 7 11 2 5 3 9 3 14 0 4-1 9-3 13-2 4-4 8-7 11-4 3-8 6-12 7-4 2-9 3-14 3h-680c-9 0-18-4-24-10-6-7-10-15-10-24 0-9 4-18 10-24 6-7 15-10 24-10z m0-239h680c5 0 10 1 14 2 4 2 8 5 12 8 3 3 5 7 7 11 2 4 3 9 3 13 0 5-1 9-3 13-2 4-4 8-7 11-4 4-8 6-12 8-4 1-9 2-14 2h-680c-9 0-18-4-24-10-6-6-10-15-10-24 0-9 4-17 10-24 6-6 15-10 24-10z m0-239h510c4 0 9 1 13 3 5 1 9 4 12 7 3 3 6 7 8 11 2 4 3 9 3 13 0 5-1 9-3 14-2 4-5 8-8 11-3 3-7 5-12 7-4 2-9 3-13 2h-510c-9 0-18-3-24-10-6-6-10-15-10-24 0-9 4-17 10-23 6-7 15-10 24-11z" horiz-adv-x="1000" />

<glyph glyph-name="ic_phone" unicode="&#xe821;" d="M211 625c-1-1-3-3-4-4l-15-24c0-1-1-2-1-3-16-36-24-76-24-115-1-32 5-64 16-94 12-29 29-56 51-79l222-223c69-69 188-86 288-42 1 1 3 2 4 3l22 15c2 0 3 2 4 3l40 39c12 13 19 29 19 47 0 16-6 31-17 42l-116 116c-6 6-13 10-20 13-8 3-16 5-25 5-8 0-16-2-24-5-7-4-14-8-20-14l-45-46-155 155 46 46c6 6 11 13 14 20 4 8 5 16 5 24 0 17-6 33-18 44l-116 116c-12 12-27 19-44 19-9 1-17-1-25-4-8-3-16-7-22-13l-40-41z m95 3l116-116c1-1 1-3 2-4 0-1 1-3 1-4 0-2-1-3-1-5-1-1-2-2-3-3l-64-64c-5-5-8-12-8-19 0-6 3-13 8-18l190-191c5-4 11-7 18-7 4 0 7 0 10 2 3 1 6 3 8 5l64 64c3 2 5 4 9 4 3 0 6-1 8-3l116-116c1 0 1-1 2-2 0-1 0-3 0-4 0-3-1-7-4-10l-38-37-18-13c-95-40-185-12-228 32l-224 223c-17 18-30 39-39 63-9 23-14 49-13 74 0 32 6 63 19 92l12 20 38 38c2 2 5 3 8 3 4-1 8-2 11-4z" horiz-adv-x="1000" />

<glyph glyph-name="ic_information" unicode="&#xe822;" d="M500 461c8 0 15 3 20 8 6 5 9 13 9 20v29c0 8-3 15-9 21-5 5-12 8-20 8-8 0-15-3-20-8-6-6-9-13-9-21v-29c0-7 3-15 9-20 5-5 12-8 20-8z m-58-116h29v-163c0-8 3-15 9-21 5-5 12-8 20-8 8 0 15 3 20 8 6 6 9 13 9 21v192c0 8-3 15-9 20-5 6-12 9-20 9h-58c-7 0-15-3-20-9-5-5-8-12-8-20 0-8 3-15 8-20 5-6 13-9 20-9z m58-370c74 0 147 22 208 63 62 41 110 100 139 169 28 68 35 143 21 216-15 73-50 140-103 192-52 53-119 88-192 103-73 14-148 7-216-21-69-29-128-77-169-139-41-61-63-134-63-208 0-99 40-195 110-265 70-70 166-110 265-110z m0 696c64 0 126-19 178-54 53-35 94-85 119-144 24-59 30-123 18-186-12-62-43-119-88-164-45-45-102-76-164-88-63-12-127-6-186 18-59 25-109 66-144 119-35 52-54 115-54 178 0 85 34 167 94 227 60 60 142 94 227 94z" horiz-adv-x="1000" />

<glyph glyph-name="ic_help" unicode="&#xe823;" d="M491 193c-7 0-14-3-19-8-5-5-8-12-8-19v-18c0-7 3-14 8-19 5-5 12-8 19-8 7 0 14 3 19 8 5 5 8 12 8 19v18c0 7-3 14-8 19-5 5-12 8-19 8z m9-218c74 0 147 22 208 63 62 41 110 100 139 169 28 68 35 143 21 216-15 73-50 140-103 192-52 53-119 88-192 103-73 14-148 7-216-21-69-29-128-77-169-139-41-61-63-134-63-208 0-99 40-195 110-265 70-70 166-110 265-110z m0 696c64 0 126-19 178-54 53-35 94-85 119-144 24-59 30-123 18-186-12-62-43-119-88-164-45-45-102-76-164-88-63-12-127-6-186 18-59 25-109 66-144 119-35 52-54 115-54 178 0 85 34 167 94 227 60 60 142 94 227 94z m-117-254c4 0 7 1 11 2 3 1 6 3 8 6 3 2 5 5 6 8 2 3 2 7 2 10 1 15 5 30 12 43 13 27 37 40 72 40 33 0 57-9 70-26 6-8 10-17 11-27 2-10 1-19-2-29-7-26-29-49-51-72-27-27-56-56-56-94 0-7 3-14 8-19 5-5 12-8 19-8 7 0 14 3 19 8 5 5 8 12 8 19 0 16 20 36 40 57 26 26 55 55 65 96 5 17 6 35 3 53-3 18-10 34-21 49-17 21-50 47-113 47-70 0-104-38-120-70-10-21-16-43-17-67 0-3 1-7 2-10 1-3 3-6 6-8 2-3 5-5 8-6 4-1 7-2 10-2z" horiz-adv-x="1000" />

<glyph glyph-name="calendar-1" unicode="&#xe824;" d="M704 405c20 0 36 17 36 37 0 20-16 36-36 36-20 0-37-16-37-36 0-20 17-37 37-37z m84 347h-48v36c0 20-16 37-36 37-20 0-37-17-37-37v-36h-166v36c0 20-16 37-36 37-20 0-37-17-37-37v-36h-164v36c0 20-16 37-36 37-20 0-37-17-37-37v-36h-45c-81 0-146-66-146-146v-569c0-81 65-146 146-146h279c20 0 36 16 36 37 0 20-16 36-36 36h-279c-40 0-73 33-73 73v569c0 40 33 73 73 73h45v-37c0-20 17-36 37-36 20 0 36 16 36 36v37h164v-37c0-20 17-36 37-36 20 0 36 16 36 36v37h166v-37c0-20 17-36 37-36 20 0 36 16 36 36v37h48c40 0 72-33 72-73v-208c0-20 17-37 37-37 20 0 36 17 36 37v208c0 80-65 146-145 146z m-75-420c-122 0-221-99-221-220 0-122 99-221 221-221 121 0 220 99 220 221 0 121-99 220-220 220z m0-368c-82 0-148 66-148 148 0 81 66 147 148 147 81 0 147-66 147-147 0-82-66-148-147-148z m53 184h-17v39c0 20-16 36-36 36-20 0-37-16-37-36v-75c0-20 17-37 37-37h53c20 0 36 17 36 37 0 20-16 36-36 36z m-221 257c20 0 37 17 37 37 0 20-17 36-37 36-20 0-36-16-36-36 0-20 16-37 36-37z m-158-158c20 0 36 16 36 36 0 20-16 37-36 37-21 0-37-17-37-37 0-20 16-36 37-36z m-159 158c20 0 36 17 36 37 0 20-16 36-36 36-20 0-37-16-37-36 0-20 17-37 37-37z m0-158c20 0 36 16 36 36 0 20-16 37-36 37-20 0-37-17-37-37 0-20 17-36 37-36z m0-159c20 0 36 16 36 37 0 20-16 36-36 36-20 0-37-16-37-36 0-21 17-37 37-37z m159 0c20 0 36 16 36 37 0 20-16 36-36 36-21 0-37-16-37-36 0-21 16-37 37-37z m0 317c20 0 36 17 36 37 0 20-16 36-36 36-21 0-37-16-37-36 0-20 16-37 37-37z" horiz-adv-x="933" />

<glyph glyph-name="ic_payment" unicode="&#xe825;" d="M838 688c-90 90-210 140-338 140-128 0-247-50-338-140-90-90-140-210-140-338 0-128 50-247 140-338 91-90 210-140 338-140 128 0 248 50 338 140 90 91 140 210 140 338 0 128-50 248-140 338z m-338-760c-232 0-422 190-422 422 0 233 190 422 422 422 233 0 422-189 422-422 0-232-189-422-422-422z m338 760l10 10 0 0-10-10z m-676 0l-10 10 0 0 10-10z m0-676l-10-10 0 0 10 10z m676 0l10-10 0 0-10 10z m10 686c-93 93-217 144-348 144v-29c124 0 240-48 328-135l20 20z m-348 144c-131 0-255-51-348-144l20-20c88 87 204 135 328 135v29z m-348-144c-93-93-144-217-144-348h29c0 124 48 240 135 328l-20 20z m-144-348c0-131 51-255 144-348l20 20c-87 88-135 204-135 328h-29z m144-348c93-93 217-144 348-144v29c-124 0-240 48-328 135l-20-20z m348-144c131 0 255 51 348 144l-20 20c-88-87-204-135-328-135v-29z m348 144c93 93 144 217 144 348h-29c0-124-48-240-135-328l20-20z m144 348c0 131-51 255-144 348l-20-20c87-88 135-204 135-328h29z m-492-407c-225 0-407 182-407 407h-29c0-240 196-436 436-436v29z m-407 407c0 225 182 407 407 407v29c-240 0-436-196-436-436h29z m407 407c225 0 407-182 407-407h29c0 240-196 436-436 436v-29z m407-407c0-225-182-407-407-407v-29c240 0 436 196 436 436h-29z m-376 36h-62c-32 0-58 26-58 58 0 32 26 58 58 58h125c20 0 37 16 37 36 0 20-17 37-37 37h-58v57c0 21-16 37-36 37-20 0-36-16-36-37v-57c-70-3-126-61-126-131 0-72 59-130 131-130h62c32 0 58-26 58-58 0-32-26-58-58-58h-125c-20 0-37-16-37-36 0-20 17-37 37-37h58v-57c0-21 16-37 36-37 20 0 36 16 36 37v57c70 3 126 61 126 131 0 72-59 130-131 130z" horiz-adv-x="1000" />

<glyph glyph-name="card" unicode="&#xe826;" d="M42 220c0-2 0-3 0-4 0 1 0 2 0 4v377c0 51 40 93 91 93h616c9 0 19-2 28-5-9 3-19 5-28 5h-616c-51 0-91-42-91-93v-377z m116-127c0 3 0 6 0 10l0 26v-26c0-4 0-7 0-10z m-120 127c-1-53 42-95 94-96h22l0-21c0-53 43-97 96-97l616 0c53 1 95 44 96 97v218c0 1 0 1 0 3l0 0c0 1 1 2 1 3 0 2-1 3-1 4l0 0c0 1 0 2 0 2v89c0 1 0 1 0 2l0 1c0 1 1 2 1 4 0 1-1 2-1 3l0 0c0 2 0 2 0 3v46c0 52-44 95-96 95h-23v21c0 53-42 97-94 97h-616c-53 0-95-44-95-97v-377z m116-44l-21 0c-24 0-44 19-44 43v378c0 25 19 46 44 46h616c24 0 43-21 43-46v-21h-542c-53 0-96-43-96-95v-305z m-21-4l25 0v309c0 50 41 90 92 90h547l0 26v-26h-547c-51 0-92-40-92-90v-309h-25z m72 309c0 24 20 44 45 43h616c24 0 45-19 45-43v-28h-706v28z m-4-32v0h714 0l0 32v-32h-714z m709-346c0-25-20-45-44-45h-616c-25 0-45 20-45 45v200h705v-200z m-709 247l714 0 0 56v-56h-714z m4 4v48h705v-48h-705z m633-114c-27 18-61 18-88 0-12 9-27 13-43 13-43 0-78-35-78-77 0-43 35-78 78-78 16 0 31 4 43 13 36-24 84-14 108 21 24 36 15 84-20 108z m-18-87c-12-15-34-16-48-4-2 1-3 2-5 4l0 0c-4 5-10 8-17 8-6 0-12-3-16-8-7-8-16-13-27-12-19 0-35 15-35 34 0 20 16 35 35 35 10 0 20-5 27-13 7-9 21-10 30-3 1 1 2 2 3 3 13 15 34 17 49 5 14-13 16-34 4-49z" horiz-adv-x="1000" />

<glyph glyph-name="points" unicode="&#xe827;" d="M486 720c5 13 24 13 28 0l63-195c9-28 36-48 66-48h204c14 0 20-18 9-26l-166-120c-24-18-34-49-25-77l64-195c4-13-11-24-23-16l-166 120c-24 18-56 18-80 0l-166-120c-11-8-27 3-22 16l63 195c9 28-1 59-25 77l-166 120c-11 8-5 26 9 26h205c29 0 56 20 65 48l63 195z" horiz-adv-x="1000" />

<glyph glyph-name="add_card" unicode="&#xe828;" d="M202 315h263v-263c0-9 4-18 10-25 7-7 16-10 25-10 9 0 18 3 25 10 6 7 10 16 10 25v263h263c10 0 19 4 25 10 7 7 10 16 10 25 0 9-3 18-10 25-6 6-15 10-25 10h-263v263c0 10-4 19-10 25-7 7-16 10-25 10-9 0-18-3-25-10-6-6-10-15-10-25v-263h-263c-9 0-18-4-25-10-7-7-10-16-10-25 0-9 3-18 10-25 7-6 16-10 25-10z" horiz-adv-x="1000" />

<glyph glyph-name="cash" unicode="&#xe829;" d="M947 276c4-1 7-4 9-7 5-9 2-20-7-25l-68-40 66-27c4-1 7-4 9-8 5-8 2-19-7-24l-280-165c-4-3-10-3-16-1l-235 100-127 54c-1 0-2 1-3 2l-233 99c-4 1-7 4-9 7-5 9-2 20 7 25l68 39-67 27c-5 2-9 6-11 10-4 9 1 20 10 24l68 38-67 28c-3 2-7 5-8 8-5 9-2 20 6 25l69 38-67 28c-4 1-8 5-10 9-4 9-1 19 8 24l279 156c4 3 10 3 15 1l208-84c2 0 5-1 7-2l127-54 259-106c6-2 11-8 11-15 1-7-3-14-9-17l-68-40 66-27c4-2 7-4 9-8 5-8 2-20-7-25l-68-40 66-27z m-288-61l241 141-58 24-173-102c-2-1-6-2-9-2-2 0-5 0-7 1l-209 89v-60l215-91z m0 99l241 142-216 88-221-147 196-83z m-557-61l177-76 0 60-116 50-61-34z m0 99l177-75 0 60-116 49-61-34z m0 99l177-75 0 60-116 49-61-34z m239 234l-239-135 194-82 218 146-173 71z m66-292c0 6 3 12 8 15l229 153-89 36-240-159v-276l92-39v270z m252-377l241 142-58 24-173-102c-5-2-11-3-16-1l-209 88v-59l215-92z m-215 191l215-92 241 142-58 24-173-102c-4-3-10-3-16-1l-209 89v-60z m512 62l4 2 0 0-4-2z m-9 7l-1-3 0 0 1 3z m2-32l-2 4 0 0 2-4z m-68-40l-2 4-7-5 8-3 1 4z m66-27l-1-4 0 0 1 4z m9-8l4 3 0 0-4-3z m-7-24l-2 3 0 0 2-3z m-280-165l-2 4 0 0 2-4z m-16-1l-1-4 0 0 1 4z m-235 100l2 4 0 0-2-4z m-127 54l-2-4 0 0 2 4z m-3 2l2 3 0 0 0 0-2-3z m-233 99l-2-4 0 0 2 4z m-9 7l-4-2 0 0 4 2z m7 25l-2 4 0 0 2-4z m68 39l2-4 8 4-8 3-2-3z m-67 27l2 4-1 0-1-4z m-11 10l4 2 0 0-4-2z m10 24l1-4 1 0-2 4z m68 38l2-3 8 4-8 3-2-4z m-67 28l-1-4 0 0 1 4z m-8 8l-4-2 0 0 4 2z m6 25l-2 3 0 0 2-3z m69 38l2-4 8 5-8 3-2-4z m-67 28l2 4 0 0-2-4z m-10 9l4 2 0 0-4-2z m8 24l2-4 0 0-2 4z m279 156l-2 4 0 0 2-4z m15 1l-1-4 0 0 1 4z m208-84l-1-4 0 0 1 0 0 4z m7-2l1 4 0 0-1-4z m127-54l-2-4 1 0 1 4z m259-106l-2-4 0 0 2 4z m11-15l-4 0 0 0 4 0z m-9-17l3-4 0 0-3 4z m-68-40l-2 3-7-4 8-3 1 4z m66-27l-1-4 0 0 1 4z m9-8l4 2 0 0-4-2z m-7-25l-2 4 0 0 2-4z m-68-40l-2 4-7-4 8-4 1 4z m19 53l2-3 7 4-8 3-1-4z m-241-141l-2-4 2-1 2 1-2 4z m183 165l2 4-2 1-2-2 2-3z m-173-102l-2 4 0 0 2-4z m-9-2l0-4h0v4z m-7 1l2 4 0 0-2-4z m-209 89l1 4-6 2v-6h5z m0-60h-5v-3l3-1 2 4z m456 150l2-4 8 5-8 3-2-4z m-241-142l-2-4 2-1 2 2-2 3z m25 230l1 4-2 1-2-1 3-4z m-221-147l-2 4-6-5 7-3 1 4z m-184-220l-1-4 5-2 0 6-4 0z m-177 76l-2 3-7-4 7-3 2 4z m177-16l5 0 0 3-3 1-2-4z m-116 50l2 4-2 0-2-1 2-3z m116-10l-1-4 5-3 0 7-4 0z m-177 75l-2 4-7-5 7-3 2 4z m177-15l5 0 0 3-3 1-2-4z m-116 49l2 4-2 1-2-1 2-4z m116-10l-1-4 5-2 0 6-4 0z m-177 75l-2 4-7-4 7-4 2 4z m177-15l5 0 0 2-3 2-2-4z m-116 49l2 4-2 1-2-1 2-4z m-61 65l-2 4-7-4 7-3 2 3z m239 135l1 3-2 1-1-1 2-3z m-45-217l-2-4 2-1 2 2-2 3z m218 146l2-4 7 4-7 3-2-3z m-99-206l-2 4 0 0 2-4z m-8-15l5 0 0 0-5 0z m237 168l2-3 7 4-8 3-1-4z m-89 36l1 4-2 1-2-1 3-4z m-240-159l-2 3-2-1v-2h4z m0-276h-4v-3l3-1 1 4z m92-39l-1-4 6-3v7h-5z m493 35l2-4 7 4-8 4-1-4z m-241-142l-2-4 2-1 2 2-2 3z m183 166l2 4-2 1-2-1 2-4z m-173-102l-2 4 0 0 2-4z m-16-1l2 4 0 0-2-4z m-209 88l1 4-6 3v-7h5z m0-59h-5v-3l3-1 2 4z m215 7l-2-3 2-1 2 1-2 3z m-215 92h-5v-3l3-1 2 4z m456 50l2-4 7 5-8 3-1-4z m-58 24l2 3-2 1-2-1 2-3z m-173-102l-2 3 0 0 2-3z m-16-1l-1-4 0 0 1 4z m-209 89l1 4-6 2v-6h5z m516 4c-3 4-7 7-11 9l-3-7c2-2 5-4 6-6l8 4z m-8-31c10 7 14 20 8 31l-8-4c4-7 2-15-5-19l5-8z m-69-40l69 40-5 8-68-40 4-8z m66-19l-66 27-3-8 66-27 3 8z m11-9c-3 4-7 7-11 9l-3-8c2-1 5-3 6-6l8 5z m-8-31c10 6 14 20 8 31l-8-5c4-6 2-15-5-19l5-7z m-280-165l280 165-5 7-280-164 5-8z m-20-1c6-3 14-2 20 1l-5 8c-3-3-8-3-12-1l-3-8z m-235 100l235-100 3 8-235 100-3-8z m-128 54l128-54 3 8-128 54-3-8z m-3 2c1-1 2-1 3-2l4 8c-1 0-2 1-3 1l-4-7z m-233 99l233-99 4 7-234 100-3-8z m-11 9c3-4 6-7 11-9l3 8c-3 1-5 3-6 6l-8-5z m9 31c-11-6-15-20-9-31l8 5c-4 6-2 15 5 18l-4 8z m68 38l-68-38 4-8 68 39-4 7z m-66 20l67-27 3 7-67 28-3-8z m-14 13c3-6 8-11 14-13l2 8c-3 1-6 4-8 8l-8-3z m12 29c-11-5-16-18-12-29l8 3c-3 7 0 15 7 18l-3 8z m68 38l-68-38 4-8 68 39-4 7z m-66 20l67-27 3 7-67 28-3-8z m-11 10c2-4 6-8 11-10l3 8c-3 1-5 3-7 6l-7-4z m8 30c-10-6-14-19-8-30l7 4c-4 7-1 15 5 19l-4 7z m69 39l-69-39 4-7 69 38-4 8z m-66 20l67-28 3 8-67 28-3-8z m-12 11c2-5 6-9 12-11l3 8c-4 1-6 3-8 7l-7-4z m9 30c-10-6-15-19-9-30l7 4c-3 6-1 15 6 18l-4 8z m279 156l-279-156 4-8 279 157-4 7z m19 1c-6 3-13 2-19-1l4-7c3 2 8 2 12 0l3 8z m208-84l-208 84-3-8 208-84 3 8z m6-2c-2 1-5 2-8 2l0-8c2 0 3-1 5-1l3 7z m128-54l-128 54-3-7 127-55 4 8z m258-106l-258 106-3-8 258-106 3 8z m14-19c0 9-6 16-14 19l-3-8c5-2 9-6 9-11l8 0z m-10-21c7 5 11 13 10 21l-8 0c0-6-2-11-7-14l5-7z m-69-40l69 40-5 7-68-40 4-7z m66-19l-66 27-3-8 66-27 3 8z m11-10c-3 4-7 8-11 10l-3-8c2-1 5-3 6-6l8 4z m-8-30c10 6 14 20 8 30l-8-4c4-7 2-15-5-19l5-7z m-69-40l69 40-5 7-68-40 4-7z m66-20l-66 27-3-8 66-26 3 7z m-52 80l-240-142 4-7 241 142-5 7z m-56 16l57-23 3 7-57 24-3-8z m-170-101l173 101-4 7-173-101 4-7z m-11-3c4 0 8 1 11 3l-4 7c-2-1-4-2-7-2v-8z m-9 1c3-1 6-1 9-1l0 8c-2 0-4 0-5 1l-4-8z m-209 89l209-89 4 8-210 89-3-8z m6-56v60h-9v-60h9z m212-88l-215 92-3-8 215-91 3 7z m238 242l-241-142 4-7 241 141-4 8z m-216 81l217-89 3 8-217 88-3-7z m-216-147l220 147-5 7-220-147 5-7z m194-76l-195 83-3-8 195-83 3 8z m-379-137l-177 75-4-7 178-76 3 8z m-6 56l0-60 8 0 1 60-9 0z m-114 46l117-50 3 8-116 50-4-8z m-57-34l61 34-4 7-61-34 4-7z m177 31l-177 76-4-8 178-75 3 7z m-6 57l0-60 8 0 1 60-9 0z m-114 46l117-50 3 8-116 49-4-7z m-57-35l61 35-4 7-61-34 4-8z m177 32l-177 75-4-8 178-75 3 8z m-6 56l0-60 8 0 1 60-9 0z m-114 45l117-49 3 8-116 49-4-8z m-57-34l61 35-4 7-61-34 4-8z m0 100l239 134-4 7-239-134 4-7z m193-75l-193 82-4-7 194-83 3 8z m215 145l-219-146 5-6 218 145-4 7z m-173 64l173-71 4 7-174 71-3-7z m74-269c-6-4-10-11-10-19l9 0c0 5 2 9 6 12l-5 7z m229 153l-229-153 5-7 228 153-4 7z m-89 28l89-36 3 8-89 36-3-8z m-235-159l239 160-5 7-239-160 5-7z m2-272v276h-9v-276h9z m89-36l-92 39-3-7 92-39 3 7z m-6 267v-270h9v270h-9z m494-232l-240-141 4-7 241 141-5 7z m-56 17l57-24 3 8-57 24-3-8z m-170-101l173 102-4 7-173-102 4-7z m-20-1c7-3 14-3 20 1l-4 7c-4-2-8-3-12-1l-4-7z m-209 88l209-88 4 7-210 88-3-7z m6-56v59h-9v-59h9z m212-88l-215 91-3-7 215-92 3 8z m0 99l-215 92-3-8 215-91 3 7z m237 142l-240-142 4-7 241 141-5 8z m-56 16l57-24 3 8-57 23-3-7z m-169-102l172 102-4 7-173-102 5-7z m-20-1c6-3 14-2 20 1l-5 7c-3-2-8-2-12 0l-3-8z m-210 89l210-89 3 8-210 89-3-8z m6-56v60h-9v-60h9z" horiz-adv-x="1000" />

<glyph glyph-name="terminal" unicode="&#xe82a;" d="M634 285h-267c-42 0-75 34-75 75v58c0 42 33 75 75 75h267c41 0 74-33 74-75v-58c0-41-33-75-74-75z m-267 156c-13 0-23-10-23-23v-58c0-13 10-23 23-23h267c12 0 22 10 22 23v58c0 13-10 23-22 23h-267z m3-273c-15 0-26 11-26 26 0 14 11 26 26 26h0c14 0 26-12 26-26 0-15-12-26-26-26z m130 0c-14 0-26 11-26 26 0 14 12 26 26 26h0c14 0 26-12 26-26 0-15-12-26-26-26z m130 0c-14 0-26 11-26 26 0 14 12 26 26 26h0c15 0 26-12 26-26 0-15-11-26-26-26z m-260-104c-15 0-26 11-26 26 0 14 11 26 26 26h0c14 0 26-12 26-26 0-15-12-26-26-26z m130 0c-14 0-26 11-26 26 0 14 12 26 26 26h0c14 0 26-12 26-26 0-15-12-26-26-26z m130 0c-14 0-26 11-26 26 0 14 12 26 26 26h0c15 0 26-12 26-26 0-15-11-26-26-26z m75 703h-410c-59 0-107-48-107-108v-618c0-60 48-108 107-108h410c59 0 108 48 108 108v618c0 60-49 108-108 108z m-283-52h156v-13c0-43-35-79-78-79-43 0-78 36-78 79v13z m338-674c0-31-24-56-55-56h-410c-31 0-55 25-55 56v618c0 31 24 56 55 56h75v-13c0-72 58-131 130-131 72 0 130 59 130 131v13h75c31 0 55-25 55-56v-618z" horiz-adv-x="1000" />
</font>
</defs>
</svg>
